<svg xmlns="http://www.w3.org/2000/svg" width="24" height="24" viewBox="0 0 24 24" fill="#DBEAEA">
  <path d="M19 0h-14c-2.761 0-5 2.239-5 5v14c0 2.762 2.239 5 5 
           5h14c2.762 0 5-2.238 5-5v-14c0-2.761-2.238-5-5-5zm-11 
           19h-3v-10h3v10zm-1.5-11.268c-.966 0-1.75-.785-1.75-1.75s.784-1.75 
           1.75-1.75 1.75.785 1.75 1.75-.784 1.75-1.75 
           1.75zm13.5 11.268h-3v-5.604c0-1.337-.025-3.063-1.868-3.063-1.869 
           0-2.155 1.459-2.155 2.968v5.699h-3v-10h2.881v1.367h.041c.401-.757 
           1.379-1.555 2.838-1.555 3.035 0 3.595 1.996 3.595 
           4.59v5.598z"/>
</svg>